HIERARCHY
ROOT Pelvis
{
	OFFSET 0.000000 0.941512 0.000000
	CHANNELS 6 Xposition Yposition Zposition Zrotation Yrotation Xrotation 
	JOINT Pelvis_L_Hip
	{
		OFFSET 0.000000 0.000000 0.000000
		CHANNELS 3 Zrotation Yrotation Xrotation
		JOINT L_Hip
		{
			OFFSET 0.062321 -0.080322 -0.016990
			CHANNELS 3 Zrotation Yrotation Xrotation
			JOINT L_Knee
			{
				OFFSET 0.093051 -0.381305 -0.029784
				CHANNELS 3 Zrotation Yrotation Xrotation
				JOINT L_Ankle
				{
					OFFSET -0.010371 -0.431000 -0.033614
					CHANNELS 3 Zrotation Yrotation Xrotation
					End Site #name: L_Foot
					{
						OFFSET 0.069299 -0.038670 0.119418
					}
				}
			}
		}
	}
	JOINT Pelvis_R_Hip
	{
		OFFSET 0.000000 0.000000 0.000000
		CHANNELS 3 Zrotation Yrotation Xrotation
		JOINT R_Hip
		{
			OFFSET -0.055334 -0.094904 -0.002373
			CHANNELS 3 Zrotation Yrotation Xrotation
			JOINT R_Knee
			{
				OFFSET -0.064207 -0.384370 -0.019592
				CHANNELS 3 Zrotation Yrotation Xrotation
				JOINT R_Ankle
				{
					OFFSET 0.025418 -0.419734 -0.065953
					CHANNELS 3 Zrotation Yrotation Xrotation
					End Site #name: R_Foot
					{
						OFFSET -0.057233 -0.039888 0.132134
					}
				}
			}
		}
	}
	JOINT Pelvis_Spine1
	{
		OFFSET 0.000000 0.000000 0.000000
		CHANNELS 3 Zrotation Yrotation Xrotation
		JOINT Spine1
		{
			OFFSET -0.005562 0.124093 -0.043360
			CHANNELS 3 Zrotation Yrotation Xrotation
			JOINT Spine2
			{
				OFFSET 0.012244 0.139499 0.029894
				CHANNELS 3 Zrotation Yrotation Xrotation
				JOINT Spine3
				{
					OFFSET -0.002556 0.056561 0.009225
					CHANNELS 3 Zrotation Yrotation Xrotation
					JOINT Spine3_Neck
					{
						OFFSET 0.000000 0.000000 0.000000
						CHANNELS 3 Zrotation Yrotation Xrotation
						JOINT Neck
						{
							OFFSET -0.005205 0.217920 -0.024551
							CHANNELS 3 Zrotation Yrotation Xrotation
							End Site #name: Head
							{
								OFFSET 0.002365 0.091850 0.046637
							}
						}
					}
					JOINT Spine3_L_Collar
					{
						OFFSET 0.000000 0.000000 0.000000
						CHANNELS 3 Zrotation Yrotation Xrotation
						JOINT L_Collar
						{
							OFFSET 0.072225 0.116603 -0.009480
							CHANNELS 3 Zrotation Yrotation Xrotation
							JOINT L_Shoulder
							{
								OFFSET 0.115937 -0.058643 -0.021018
								CHANNELS 3 Zrotation Yrotation Xrotation
								JOINT L_Elbow
								{
									OFFSET 0.021994 -0.254722 -0.024492
									CHANNELS 3 Zrotation Yrotation Xrotation
									End Site #name: L_Wrist
									{
										OFFSET 0.048810 -0.240214 0.103329
									}
								}
							}
						}
					}
					JOINT Spine3_R_Collar
					{
						OFFSET 0.000000 0.000000 0.000000
						CHANNELS 3 Zrotation Yrotation Xrotation
						JOINT R_Collar
						{
							OFFSET -0.073372 0.120704 -0.024611
							CHANNELS 3 Zrotation Yrotation Xrotation
							JOINT R_Shoulder
							{
								OFFSET -0.108089 -0.054969 -0.020504
								CHANNELS 3 Zrotation Yrotation Xrotation
								JOINT R_Elbow
								{
									OFFSET -0.033684 -0.260739 0.009889
									CHANNELS 3 Zrotation Yrotation Xrotation
									End Site #name: R_Wrist
									{
										OFFSET -0.067980 -0.232763 0.118463
									}
								}
							}
						}
					}
				}
			}
		}
	}
}
MOTION
Frames: 15
Frame Time: 0.041667
0.011191 0.941121 -0.000364 -5.950474 8.592346 10.390345 0.000000 0.000000 0.000000 5.680400 -1.724182 -6.088197 3.197686 -0.125538 -2.029782 4.779431 19.025056 4.741114 0.000000 0.000000 0.000000 4.988342 2.180629 -11.751403 -1.203891 0.157749 -0.623478 2.705807 3.981909 3.655850 0.000000 0.000000 0.000000 9.534827 -0.421460 -10.006962 -11.596823 -0.573135 -15.350648 -2.478699 4.859736 6.545843 0.000000 0.000000 0.000000 17.899256 -19.846979 29.522787 0.000000 0.000000 0.000000 30.166768 -0.224679 8.630458 -13.233495 3.740553 10.814331 -4.190978 -6.101057 -16.358526 0.000000 0.000000 0.000000 -84.029236 4.716883 15.991137 -62.446578 -2.657109 -1.330170 -108.625694 -20.830134 35.855002 
0.010700 0.940917 -0.000570 -5.923618 8.618807 10.405358 0.000000 0.000000 0.000000 5.686103 -1.727197 -6.101376 3.196916 -0.124954 -2.039406 4.789961 19.046294 4.739855 0.000000 0.000000 0.000000 4.990562 2.184642 -11.772143 -1.202201 0.157921 -0.617422 2.710200 4.001157 3.653041 0.000000 0.000000 0.000000 9.543107 -0.427960 -9.977385 -11.573016 -0.565952 -15.301510 -2.451749 4.942601 6.599159 0.000000 0.000000 0.000000 17.804767 -19.804458 29.576120 0.000000 0.000000 0.000000 30.113944 -0.115063 8.731654 -13.238709 3.756713 10.878021 -4.217673 -6.111142 -16.335704 0.000000 0.000000 0.000000 -84.011326 4.733801 15.860762 -62.398472 -2.654600 -1.332636 -108.583586 -20.868166 35.751744 
0.012165 0.940578 -0.000220 -5.893288 8.953990 10.496196 0.000000 0.000000 0.000000 5.685755 -1.795642 -6.457681 3.133369 -0.128424 -1.879756 4.764444 18.888454 4.643159 0.000000 0.000000 0.000000 4.887661 2.197162 -11.855083 -1.172512 0.155875 -0.584618 2.465468 3.548055 3.432807 0.000000 0.000000 0.000000 9.898576 -0.424526 -10.302674 -11.787399 -0.565374 -15.271611 -2.628963 5.197478 6.784184 0.000000 0.000000 0.000000 17.115465 -19.418701 29.956168 0.000000 0.000000 0.000000 29.677640 0.543591 9.270713 -12.952512 3.687944 10.835375 -4.325395 -6.124995 -16.153237 0.000000 0.000000 0.000000 -84.476662 4.870346 15.542268 -60.538000 -2.621057 -1.299617 -108.194276 -22.184330 33.737683 
0.012023 0.940645 -0.000115 -5.812660 8.926052 10.295089 0.000000 0.000000 0.000000 5.565973 -1.734147 -6.168723 3.181496 -0.126845 -1.965518 4.656828 18.725502 4.706029 0.000000 0.000000 0.000000 4.791748 2.132302 -11.548041 -1.141205 0.142804 -0.705158 2.554621 3.703337 3.526562 0.000000 0.000000 0.000000 9.706301 -0.471482 -9.855793 -11.706795 -0.584555 -15.376242 -2.554435 5.309463 6.642162 0.000000 0.000000 0.000000 17.030198 -19.260606 29.733942 0.000000 0.000000 0.000000 29.711441 0.496221 9.264631 -13.097739 3.719940 10.844278 -4.267234 -6.019146 -15.902346 0.000000 0.000000 0.000000 -83.797594 4.664824 15.525021 -61.677588 -2.642536 -1.354874 -107.652899 -22.244763 33.517403 
0.011927 0.940610 -0.000120 -5.811868 8.927504 10.297403 0.000000 0.000000 0.000000 5.566458 -1.734178 -6.168674 3.181623 -0.126838 -1.965559 4.657510 18.726478 4.705828 0.000000 0.000000 0.000000 4.792102 2.132393 -11.548388 -1.141260 0.142830 -0.704877 2.554901 3.704571 3.526320 0.000000 0.000000 0.000000 9.704777 -0.471853 -9.852444 -11.706794 -0.583987 -15.373141 -2.554307 5.314305 6.645199 0.000000 0.000000 0.000000 17.024520 -19.257749 29.736792 0.000000 0.000000 0.000000 29.709254 0.502101 9.270292 -13.098251 3.721076 10.849286 -4.267412 -6.018745 -15.901585 0.000000 0.000000 0.000000 -83.798108 4.666212 15.517997 -61.677445 -2.642601 -1.355190 -107.651012 -22.246165 33.512302 
0.011789 0.940553 -0.000098 -5.810874 8.929168 10.301129 0.000000 0.000000 0.000000 5.566796 -1.734248 -6.168748 3.181647 -0.126831 -1.965491 4.658212 18.727664 4.705662 0.000000 0.000000 0.000000 4.791504 2.132530 -11.549814 -1.140373 0.142762 -0.703842 2.555182 3.705329 3.526529 0.000000 0.000000 0.000000 9.703706 -0.472351 -9.848919 -11.707662 -0.583372 -15.368962 -2.553807 5.319268 6.648773 0.000000 0.000000 0.000000 17.018617 -19.254828 29.739825 0.000000 0.000000 0.000000 29.706579 0.508314 9.276084 -13.098946 3.722088 10.852598 -4.269629 -6.019656 -15.899280 0.000000 0.000000 0.000000 -83.798417 4.667567 15.510325 -61.677601 -2.642647 -1.355623 -107.649431 -22.247879 33.507100 
0.011675 0.940514 -0.000065 -5.810086 8.930441 10.304690 0.000000 0.000000 0.000000 5.567012 -1.734296 -6.168774 3.181841 -0.126815 -1.966241 4.658411 18.728635 4.705910 0.000000 0.000000 0.000000 4.792162 2.132467 -11.548886 -1.141101 0.142849 -0.704217 2.555312 3.706289 3.526103 0.000000 0.000000 0.000000 9.702883 -0.472840 -9.845638 -11.707582 -0.582823 -15.366018 -2.553867 5.322886 6.651656 0.000000 0.000000 0.000000 17.014592 -19.252876 29.741866 0.000000 0.000000 0.000000 29.704424 0.512912 9.280255 -13.099422 3.722827 10.855511 -4.271420 -6.020655 -15.898432 0.000000 0.000000 0.000000 -83.798536 4.668743 15.504252 -61.676903 -2.642657 -1.356188 -107.648562 -22.249603 33.502496 
0.011587 0.940497 -0.000021 -5.809434 8.931392 10.308286 0.000000 0.000000 0.000000 5.567192 -1.734345 -6.168824 3.181916 -0.126809 -1.966473 4.658745 18.729425 4.705923 0.000000 0.000000 0.000000 4.791940 2.132499 -11.549340 -1.140649 0.142799 -0.703972 2.555494 3.706717 3.526287 0.000000 0.000000 0.000000 9.702633 -0.473308 -9.843022 -11.707844 -0.582412 -15.363350 -2.553454 5.325383 6.654070 0.000000 0.000000 0.000000 17.011740 -19.251593 29.743422 0.000000 0.000000 0.000000 29.702625 0.516166 9.283107 -13.099742 3.723278 10.857191 -4.271120 -6.020152 -15.898199 0.000000 0.000000 0.000000 -83.798592 4.669603 15.499582 -61.676023 -2.642662 -1.356649 -107.647680 -22.251519 33.498517 
0.011521 0.940493 0.000034 -5.808992 8.932200 10.311997 0.000000 0.000000 0.000000 5.567394 -1.734378 -6.168814 3.181970 -0.126809 -1.966535 4.659068 18.729944 4.705788 0.000000 0.000000 0.000000 4.791430 2.132586 -11.550435 -1.139944 0.142765 -0.702793 2.555546 3.706976 3.526247 0.000000 0.000000 0.000000 9.702811 -0.473786 -9.840714 -11.708285 -0.582062 -15.360806 -2.553018 5.327076 6.656271 0.000000 0.000000 0.000000 17.009612 -19.250562 29.744564 0.000000 0.000000 0.000000 29.701113 0.518584 9.285086 -13.099897 3.723436 10.857108 -4.270496 -6.019301 -15.897365 0.000000 0.000000 0.000000 -83.798548 4.670379 15.495719 -61.675440 -2.642783 -1.356816 -107.646369 -22.254111 33.494415 
0.009573 0.940839 -0.001721 -5.579618 8.791354 10.260430 0.000000 0.000000 0.000000 5.507355 -1.744438 -6.244865 3.130751 -0.125596 -1.938753 4.669390 18.832977 4.781263 0.000000 0.000000 0.000000 4.626522 2.138275 -11.609615 -0.975316 0.113848 -0.741521 2.560572 3.745249 3.502529 0.000000 0.000000 0.000000 9.553974 -0.458774 -9.795145 -11.957928 -0.549244 -15.212816 -2.998210 5.213563 6.973266 0.000000 0.000000 0.000000 16.268121 -18.354179 29.406172 0.000000 0.000000 0.000000 29.668520 1.072653 9.718539 -12.882748 3.455538 9.779744 -4.115420 -5.793770 -15.440127 0.000000 0.000000 0.000000 -82.343822 3.711577 16.770416 -63.043431 -4.504957 -5.604860 -107.235594 -23.669393 31.975094 
0.009649 0.940654 -0.001545 -5.852372 8.815944 10.516781 0.000000 0.000000 0.000000 5.847802 -1.838481 -6.647388 3.117332 -0.132118 -1.793964 4.812308 19.085697 4.731876 0.000000 0.000000 0.000000 4.973939 2.228856 -11.995473 -1.041335 0.132134 -0.623058 2.451581 3.568641 3.376896 0.000000 0.000000 0.000000 9.855848 -0.485646 -9.928045 -11.891876 -0.548031 -15.204551 -2.540866 5.459877 6.716398 0.000000 0.000000 0.000000 16.050443 -18.344318 29.815971 0.000000 0.000000 0.000000 28.819951 0.890411 9.299088 -12.171211 3.449568 10.545468 -4.417809 -6.158161 -16.062323 0.000000 0.000000 0.000000 -83.948683 5.305524 13.956188 -61.184031 -2.846553 -1.842584 -107.514231 -23.080357 32.448394 
0.009614 0.940685 -0.001538 -5.849722 8.815615 10.515958 0.000000 0.000000 0.000000 5.846794 -1.838083 -6.645496 3.117616 -0.132100 -1.794680 4.811594 19.084712 4.732290 0.000000 0.000000 0.000000 4.972616 2.228382 -11.993789 -1.040440 0.131948 -0.623778 2.452531 3.569958 3.378193 0.000000 0.000000 0.000000 9.856409 -0.486222 -9.925233 -11.888693 -0.548204 -15.205757 -2.538315 5.461643 6.714465 0.000000 0.000000 0.000000 16.049283 -18.342864 29.814573 0.000000 0.000000 0.000000 28.820107 0.890073 9.299183 -12.172583 3.449365 10.542883 -4.417227 -6.157612 -16.061730 0.000000 0.000000 0.000000 -83.942890 5.304996 13.953222 -61.190308 -2.846293 -1.842000 -107.510309 -23.080738 32.446499 
0.009499 0.940788 -0.001556 -5.842562 8.815410 10.514707 0.000000 0.000000 0.000000 5.845837 -1.837745 -6.643959 3.117796 -0.132089 -1.794982 4.811591 19.084616 4.732360 0.000000 0.000000 0.000000 4.972406 2.227915 -11.991114 -1.040918 0.131923 -0.625288 2.453417 3.571470 3.379121 0.000000 0.000000 0.000000 9.861911 -0.487079 -9.925220 -11.881768 -0.548612 -15.206906 -2.531571 5.465522 6.711611 0.000000 0.000000 0.000000 16.045979 -18.340247 29.814521 0.000000 0.000000 0.000000 28.819767 0.891931 9.301331 -12.173817 3.449119 10.541032 -4.416003 -6.157119 -16.063307 0.000000 0.000000 0.000000 -83.936523 5.304978 13.947435 -61.193063 -2.846349 -1.842448 -107.506759 -23.079412 32.445720 
0.009367 0.940894 -0.001611 -5.833649 8.815332 10.511405 0.000000 0.000000 0.000000 5.844670 -1.837350 -6.642228 3.118069 -0.132065 -1.795802 4.811377 19.084696 4.732811 0.000000 0.000000 0.000000 4.971486 2.227521 -11.989465 -1.040745 0.131862 -0.625770 2.454323 3.573070 3.380070 0.000000 0.000000 0.000000 9.868778 -0.487829 -9.926777 -11.872119 -0.549256 -15.209939 -2.523113 5.470296 6.707650 0.000000 0.000000 0.000000 16.042109 -18.337385 29.814502 0.000000 0.000000 0.000000 28.819710 0.894289 9.304359 -12.175145 3.448804 10.538058 -4.415941 -6.157332 -16.063833 0.000000 0.000000 0.000000 -83.927956 5.304500 13.940777 -61.194986 -2.845992 -1.842063 -107.503928 -23.075713 32.447237 
0.009039 0.941124 -0.001920 -5.805877 8.816478 10.495424 0.000000 0.000000 0.000000 5.842308 -1.836933 -6.640979 3.118596 -0.132036 -1.796520 4.811653 19.085955 4.733532 0.000000 0.000000 0.000000 4.970819 2.227132 -11.988122 -1.040266 0.131785 -0.625815 2.456111 3.577347 3.381207 0.000000 0.000000 0.000000 9.898143 -0.489935 -9.939547 -11.834020 -0.552055 -15.221469 -2.492080 5.488022 6.694553 0.000000 0.000000 0.000000 16.026674 -18.327846 29.819286 0.000000 0.000000 0.000000 28.816452 0.906682 9.317601 -12.174278 3.447375 10.532692 -4.415889 -6.157777 -16.065066 0.000000 0.000000 0.000000 -83.906849 5.304458 13.919031 -61.184537 -2.843270 -1.836706 -107.500029 -23.054588 32.463749 
